<svg width="106" height="61" viewBox="0 0 106 61" fill="none" xmlns="http://www.w3.org/2000/svg">
<path d="M56.0864 9.23217C56.0864 13.3237 52.2361 16.9643 47.0601 16.9643C41.8841 16.9643 38.0338 13.3237 38.0338 9.23217C38.0338 5.14062 41.8841 1.5 47.0601 1.5C52.2361 1.5 56.0864 5.14062 56.0864 9.23217Z" fill="#D9D9D9" stroke="black" stroke-width="3" stroke-linejoin="round"/>
<mask id="path-2-inside-1_71_4" fill="white">
<ellipse cx="44.0527" cy="9.23225" rx="3.00752" ry="2.63776"/>
</mask>
<ellipse cx="44.0527" cy="9.23225" rx="3.00752" ry="2.63776" fill="black"/>
<path d="M44.0602 9.23225C44.0602 9.12676 44.086 9.02978 44.1217 8.95584C44.1554 8.88586 44.1901 8.85176 44.2012 8.842C44.2194 8.82604 44.1758 8.87001 44.0527 8.87001V14.87C46.9887 14.87 50.0602 12.7035 50.0602 9.23225H44.0602ZM44.0527 8.87001C43.9295 8.87001 43.886 8.82604 43.9042 8.842C43.9153 8.85176 43.9499 8.88586 43.9837 8.95584C44.0194 9.02978 44.0452 9.12676 44.0452 9.23225H38.0452C38.0452 12.7035 41.1166 14.87 44.0527 14.87V8.87001ZM44.0452 9.23225C44.0452 9.33773 44.0194 9.43471 43.9837 9.50865C43.9499 9.57864 43.9153 9.61274 43.9042 9.6225C43.886 9.63845 43.9295 9.59448 44.0527 9.59448V3.59448C41.1166 3.59448 38.0452 5.76097 38.0452 9.23225H44.0452ZM44.0527 9.59448C44.1758 9.59448 44.2194 9.63845 44.2012 9.6225C44.1901 9.61274 44.1554 9.57864 44.1217 9.50865C44.086 9.43471 44.0602 9.33773 44.0602 9.23225H50.0602C50.0602 5.76097 46.9887 3.59448 44.0527 3.59448V9.59448Z" fill="black" mask="url(#path-2-inside-1_71_4)"/>
<path d="M1.57837 16.8817C1.57837 17.5494 2.0197 18.1367 2.66103 18.3224L33.0317 27.1197H3.07837C2.24994 27.1197 1.57837 27.7913 1.57837 28.6197V57.7926C1.57837 58.621 2.24994 59.2926 3.07837 59.2926H91.0417C91.8702 59.2926 92.5417 58.621 92.5417 57.7926V26.7073C92.5417 26.0101 92.0613 25.4048 91.3823 25.2465L3.41896 4.73791C2.9732 4.63398 2.50439 4.73926 2.14587 5.02381C1.78735 5.30835 1.57837 5.74102 1.57837 6.19873V16.8817Z" fill="#7F9E79" stroke="black" stroke-width="3" stroke-linejoin="round"/>
<path d="M70.669 24.8442C77.1201 24.8442 82.6953 20.2181 82.6953 14.1121C82.6953 8.00603 77.1201 3.37988 70.669 3.37988C64.218 3.37988 58.6427 8.00603 58.6427 14.1121C58.6427 20.2181 64.218 24.8442 70.669 24.8442Z" fill="#D9D9D9" stroke="black" stroke-width="3" stroke-linejoin="round"/>
<mask id="path-6-inside-2_71_4" fill="white">
<ellipse cx="67.6616" cy="14.1116" rx="3.00752" ry="2.63776"/>
</mask>
<ellipse cx="67.6616" cy="14.1116" rx="3.00752" ry="2.63776" fill="black"/>
<path d="M67.6691 14.1116C67.6691 14.0062 67.6949 13.9092 67.7306 13.8352C67.7643 13.7652 67.7989 13.7312 67.8101 13.7214C67.8283 13.7054 67.7847 13.7494 67.6616 13.7494V19.7494C70.5976 19.7494 73.6691 17.5829 73.6691 14.1116H67.6691ZM67.6616 13.7494C67.5384 13.7494 67.4949 13.7054 67.5131 13.7214C67.5242 13.7312 67.5588 13.7652 67.5926 13.8352C67.6282 13.9092 67.6541 14.0062 67.6541 14.1116H61.6541C61.6541 17.5829 64.7255 19.7494 67.6616 19.7494V13.7494ZM67.6541 14.1116C67.6541 14.2171 67.6282 14.3141 67.5926 14.388C67.5588 14.458 67.5242 14.4921 67.5131 14.5019C67.4949 14.5178 67.5384 14.4739 67.6616 14.4739V8.47388C64.7255 8.47388 61.6541 10.6404 61.6541 14.1116H67.6541ZM67.6616 14.4739C67.7847 14.4739 67.8283 14.5178 67.8101 14.5019C67.7989 14.4921 67.7643 14.458 67.7306 14.388C67.6949 14.3141 67.6691 14.2171 67.6691 14.1116H73.6691C73.6691 10.6404 70.5976 8.47388 67.6616 8.47388V14.4739Z" fill="black" mask="url(#path-6-inside-2_71_4)"/>
<path d="M90.5226 42.8166C89.8964 43.0122 89.47 43.5922 89.47 44.2483V52.7551C89.47 53.4195 89.9071 54.0048 90.5442 54.1934L102.574 57.7544C103.028 57.8887 103.519 57.801 103.898 57.5179C104.277 57.2347 104.5 56.7893 104.5 56.3161V40.4895C104.5 40.0123 104.273 39.5636 103.889 39.281C103.504 38.9983 103.008 38.9155 102.553 39.0578L90.5226 42.8166Z" fill="black" stroke="black" stroke-width="3" stroke-linejoin="round"/>
<rect x="3" y="38.907" width="88.1202" height="18.86" fill="black" stroke="black" stroke-width="3" stroke-linejoin="round"/>
<rect x="6.00757" y="41.8086" width="7.51879" height="6.59441" fill="#D9D9D9"/>
<rect x="24.8046" y="41.8086" width="7.51879" height="6.59441" fill="#D9D9D9"/>
<rect x="43.6016" y="41.8086" width="7.51879" height="6.59441" fill="#D9D9D9"/>
<rect x="62.3984" y="41.8086" width="7.51879" height="6.59441" fill="#D9D9D9"/>
<rect x="81.1954" y="41.8086" width="7.51879" height="6.59441" fill="#D9D9D9"/>
</svg>
